<?xml version="1.0" encoding="utf-8"?>
<!-- Generator: Adobe Illustrator 24.2.3, SVG Export Plug-In . SVG Version: 6.00 Build 0)  -->
<svg version="1.1" id="Layer_1" xmlns="http://www.w3.org/2000/svg" xmlns:xlink="http://www.w3.org/1999/xlink" x="0px" y="0px"
	 viewBox="0 0 667 727" style="enable-background:new 0 0 667 727;" xml:space="preserve">
<style type="text/css">
	.st0{fill:#FFFFFF;}
	.st1{fill:#010202;}
	.st2{fill:#020304;}
	.st3{fill:none;stroke:#020304;stroke-miterlimit:10;}
</style>
<g id="Dev_Bootcamp_Logo" transform="translate(10.882 24.975)">
	<g id="Layer_3" transform="translate(-647.133 -214.605)">
		<g id="Path_41">
			<path class="st0" d="M1246.6,826.2c-4.5,0.7-291.2,174.9-558.4-7.5c-1.2-2.8,35.4-72.8,35.4-72.8h485.7L1246.6,826.2z"/>
			<path class="st1" d="M1251,828.6c-0.5,0.9-1.4,1.7-2.4,2.2c-0.9,0.4-0.2,0.1-0.4,0.2l0,0l-0.1,0l-0.4,0.2l-0.9,0.5l-2,1.1
				l-4.1,2.2c-2.7,1.4-5.5,2.9-8.2,4.3c-5.5,2.8-11.1,5.5-16.6,8.1c-11.2,5.3-22.5,10.2-34,14.8c-22.9,9.2-46.3,17.2-70.1,23.8
				c-47.6,13.2-96.9,21.1-146.4,21.9c-49.5,0.9-99.4-5.4-147-19.6c-23.8-7.1-47.1-16-69.5-26.7c-11.2-5.4-22.2-11.2-33-17.3
				c-10.8-6.2-21.3-12.8-31.6-19.8l0,0l-1.7-1.2l-0.7-1.7c-0.2-0.5-0.4-1.1-0.5-1.7c-0.1-0.3-0.1-0.6-0.1-0.9c0-0.4,0-0.4,0-0.6
				l0-0.5c0-0.2,0.1-0.4,0.1-0.6l0.1-0.5c0.1-0.5,0.2-0.9,0.3-1.2c0.2-0.6,0.4-1.1,0.6-1.6c0.4-0.9,0.7-1.8,1.1-2.6
				c0.7-1.7,1.5-3.2,2.2-4.8c1.5-3.1,3-6.2,4.6-9.2c3.1-6.1,6.3-12.1,9.5-18.1c6.4-12,12.8-23.8,19.4-35.7l0,0l1.4-2.7l3.1,0
				l485.7-3.6l0,0l5.8,0.2l2,4.7c6.2,14.7,12.1,29.5,17.7,44C1240.3,800.8,1245.6,814.9,1251,828.6z M1242.2,823.9
				c-7.1-13.1-14.2-25.8-21.1-38c-6.9-12.3-13.4-24.3-19.7-36.4l7.8,5h0l-485.7-3.6l4.4-2.7l0,0c-6,12.1-11.8,24.3-17.6,36.4
				c-2.9,6.1-5.7,12.2-8.5,18.3c-1.4,3-2.7,6.1-4,9.1c-0.6,1.5-1.3,3-1.8,4.5c-0.3,0.7-0.6,1.5-0.8,2.1c-0.1,0.3-0.2,0.6-0.2,0.8
				c0,0.1,0,0.1,0,0l0-0.1c0-0.1,0-0.2,0-0.3l0-0.3c0-0.1,0-0.2,0-0.5c0-0.3,0-0.5-0.1-0.7c-0.1-0.5-0.2-1-0.5-1.5l-2.4-2.9l0,0
				c10,6.8,20.2,13.3,30.6,19.4c10.4,6.1,21.1,11.8,32,17.1c21.7,10.6,44.3,19.4,67.4,26.4c46.3,14,94.7,20.5,143.2,20
				c48.5-0.5,96.8-7.9,143.7-20.6c23.4-6.4,46.5-14.1,69.1-23c11.3-4.5,22.5-9.3,33.5-14.4c5.5-2.6,11-5.2,16.4-7.9
				c2.7-1.4,5.4-2.7,8.1-4.1l4.1-2.1l2.1-1.1l1.1-0.6l0.6-0.3l0.2-0.1l0.3-0.1c-0.1,0,0.6-0.3-0.1,0.1
				C1243.4,822.2,1242.6,823,1242.2,823.9z"/>
		</g>
		<g id="Path_40">
			<path class="st0" d="M657.2,293.7c4.7-0.8,349.5-192.5,623.9,9.2c1.3,3.1-32.1,79-32.1,79H691.3L657.2,293.7z"/>
			<path class="st1" d="M649.3,289.1c0.7-1.1,1.7-2.1,2.8-2.9c0.6-0.4,1.2-0.7,1.8-1l0.3-0.1l0.4-0.2l1-0.5l2.3-1.1l4.7-2.2
				c3.1-1.5,6.2-3,9.4-4.4c6.3-2.9,12.6-5.7,19-8.5c12.7-5.5,25.6-10.6,38.5-15.4c25.9-9.6,52.3-18,79-25
				c26.7-7,53.8-12.7,81.2-16.8c13.7-2,27.4-3.6,41.2-4.9c3.4-0.3,6.9-0.6,10.3-0.8l10.4-0.7l10.4-0.5c3.5-0.2,6.9-0.2,10.4-0.3
				c13.8-0.3,27.7-0.2,41.5,0.5c13.8,0.7,27.6,1.8,41.4,3.5c13.7,1.8,27.4,4,41,6.8c13.6,2.9,27,6.2,40.3,10.1
				c3.3,1,6.6,2.1,9.9,3.1c1.6,0.5,3.3,1,4.9,1.6l4.9,1.7c3.3,1.2,6.6,2.2,9.8,3.5l9.7,3.7c1.6,0.6,3.2,1.3,4.8,1.9l4.8,2
				c3.2,1.3,6.4,2.6,9.5,4.1l9.4,4.3c3.1,1.5,6.2,3.1,9.3,4.6l4.6,2.3l4.6,2.5l9.1,4.9l9,5.2c1.5,0.9,3,1.7,4.5,2.6l4.4,2.7
				c2.9,1.8,5.9,3.6,8.8,5.5l8.6,5.8c1.4,1,2.9,1.9,4.3,2.9l4.2,3l8.4,6.1l0,0l1.1,0.8l0.5,1.4c0.2,0.5,0.3,1,0.4,1.6l0,0.4l0,0.1
				l0,0.3c0,0.2,0,0.4,0,0.6l0,0.3c-0.1,0.5-0.1,0.8-0.2,1.1c-0.1,0.6-0.3,1.1-0.4,1.6c-0.3,1-0.5,1.9-0.8,2.8
				c-0.6,1.8-1.1,3.5-1.7,5.2c-1.2,3.4-2.4,6.8-3.7,10.1c-2.5,6.7-5.1,13.4-7.6,20c-5.2,13.3-10.5,26.5-15.8,39.8l0,0l-2,4.5l-4.8,0
				l-557.7-2.5l0,0l-3.2,0.1l-1.5-3.3c-6.6-15-13.1-30.5-19.4-46.4C660.9,321.3,654.9,305.1,649.3,289.1z M665.2,298.2
				c5.7,13.3,11.1,26.5,16.1,40.1c5.1,13.5,9.8,27.4,14.6,41.8l-4.7-3.2l0,0l557.7-2.5l-6.8,4.5l0,0c6.1-12.8,12.1-25.7,18-38.6
				c3-6.5,5.9-12.9,8.7-19.4c1.4-3.2,2.8-6.5,4.2-9.7c0.7-1.6,1.3-3.2,1.9-4.8c0.3-0.8,0.6-1.6,0.8-2.3c0.1-0.4,0.2-0.7,0.3-1
				c0-0.1,0.1-0.3,0.1-0.2c0,0,0,0,0,0c0,0.1,0,0.2,0,0.2l0,0.5c0,0.4,0.2,0.9,0.3,1.2l1.7,2.1l0,0l-8.3-5.8l-4.2-2.9
				c-1.4-0.9-2.8-1.9-4.2-2.8l-8.5-5.5c-2.9-1.8-5.8-3.5-8.7-5.3l-4.3-2.6c-1.5-0.9-2.9-1.7-4.4-2.5l-8.8-5l-9-4.7l-4.5-2.3
				l-4.6-2.2c-3-1.5-6.1-2.9-9.1-4.4l-9.3-4.1c-3.1-1.4-6.2-2.6-9.3-3.9l-4.7-1.9c-1.6-0.6-3.1-1.3-4.7-1.8l-9.5-3.5
				c-3.2-1.2-6.4-2.2-9.6-3.3l-4.8-1.6c-1.6-0.5-3.2-1-4.8-1.5c-3.2-1-6.5-2-9.7-2.9c-52-14.8-106.4-20.3-160.4-18.4
				c-3.4,0.1-6.8,0.2-10.1,0.4l-10.1,0.6l-10.1,0.8c-3.4,0.2-6.7,0.6-10.1,0.9c-13.5,1.4-26.9,3.1-40.2,5.3
				c-26.7,4.4-53.2,10.2-79.3,17.4c-26.1,7.2-51.8,15.8-77.1,25.5c-12.6,4.9-25.1,10.1-37.5,15.6c-6.2,2.8-12.3,5.6-18.4,8.5
				c-3.1,1.5-6.1,2.9-9.1,4.4l-4.6,2.3l-2.3,1.2l-1.3,0.6l-0.8,0.4c0,0-0.3,0.1,0,0c0.5-0.2,1-0.5,1.5-0.9
				C663.9,300.2,664.7,299.2,665.2,298.2z"/>
		</g>
	</g>
	<g id="Layer_2_1_" transform="translate(6 140.841)">
		<g id="Group_1" transform="translate(89.611 67.774)">
			<path id="Path_1" class="st2" d="M14.1,22.1c2.3-0.2,4.6-0.4,6.9-0.4l6.5-0.2l13-0.4l26.2-0.6l52.1-0.8
				c34.8-0.4,69.7-0.6,104.5-0.6s69.7,0.2,104.5,0.8l52.1,0.8c17.4,0.4,34.8,0.8,52.1,1.5v2.1c-17.4,0.6-34.8,0.8-52.1,1.3
				l-52.1,0.6c-34.8,0.4-69.7,0.4-104.5,0.4c-34.8-0.2-69.5-0.2-104.5-0.6l-52.1-0.6l-51.9-1L14.1,22.1z"/>
		</g>
		<g id="Group_2" transform="translate(70.139 87.037)">
			<path id="Path_2" class="st2" d="M14.1,22.7c38.1-1.7,76-2.5,114.1-2.9c38.1-0.6,76-0.8,114.1-0.8l56.9,0.2
				c19.1,0.2,38.1,0.2,56.9,0.6c38.1,0.6,76,1.5,114.1,3.1V25c-38.1,1.7-76,2.5-114.1,3.1c-19.1,0.4-38.1,0.4-56.9,0.6L242.3,29
				c-38.1,0-76-0.2-114.1-0.8s-76-1.5-114.1-2.9L14.1,22.7z"/>
		</g>
		<g id="Group_3" transform="translate(52.343 115.092)">
			<path id="Path_3" class="st2" d="M14.1,22.7c41.5-1.5,82.9-2.3,124.4-2.9c20.7-0.4,41.5-0.4,62.2-0.6l62.2-0.2
				c41.5,0,82.9,0.2,124.4,0.8c41.5,0.4,82.9,1.4,124.4,2.9v2.1c-41.5,1.5-82.9,2.3-124.4,2.9s-82.9,0.8-124.4,0.8l-62.2-0.2
				c-20.7-0.2-41.5-0.2-62.2-0.6C97,27.1,55.6,26.5,14.1,24.8C14.1,24.8,14.1,22.7,14.1,22.7z"/>
		</g>
		<g id="Group_4" transform="translate(37.687 138.542)">
			<path id="Path_4" class="st2" d="M14.1,22.5c44.6-1.5,89.2-2.4,133.8-2.9c44.6-0.4,89.2-0.6,133.8-0.6s89.2,0.3,133.8,0.8
				c44.6,0.4,89.2,1.5,133.8,2.7v2.1c-44.6,1.3-89.2,2.3-133.8,2.7c-44.6,0.6-89.2,0.9-133.8,0.8c-44.6,0-89.2-0.2-133.8-0.6
				s-89.2-1.4-133.8-2.9V22.5L14.1,22.5z"/>
		</g>
		<g id="Group_5" transform="translate(20.937 167.435)">
			<path id="Path_5" class="st2" d="M14.1,22.3C26,21.9,38,21.7,49.9,21.5l35.8-0.8l71.6-1c47.7-0.4,95.5-0.6,143.2-0.6l71.6,0.2
				l35.8,0.2l35.8,0.4l71.6,0.8c23.9,0.4,47.7,0.8,71.6,1.5v2.1c-23.9,0.6-47.7,1-71.6,1.5l-71.6,0.8l-35.8,0.4l-35.8,0.2l-71.6,0.2
				c-47.7,0-95.5,0-143.2-0.6l-71.6-0.6l-35.8-0.8C38,25,26,24.6,14.1,24.4L14.1,22.3L14.1,22.3z"/>
		</g>
		<g id="Group_6" transform="translate(0 189)">
			<path id="Path_6" class="st2" d="M14.1,22.3c12.8-0.4,25.5-0.6,38.3-0.8l38.3-0.8l76.8-1c51.3-0.4,102.4-0.6,153.7-0.6l76.8,0.2
				l38.3,0.2l38.3,0.4l76.8,0.8c25.5,0.4,51.3,0.8,76.8,1.5v2.1c-25.5,0.6-51.3,1-76.8,1.5l-76.8,0.8l-38.3,0.4l-38.3,0.2l-76.8,0.2
				c-51.3,0-102.4,0-153.7-0.6l-76.8-1l-38.3-0.8c-12.8-0.2-25.5-0.6-38.3-0.8V22.3z"/>
		</g>
		<g id="Group_7" transform="translate(106.989 314.204)">
			<path id="Path_7" class="st2" d="M432,23.3c-2.3,0.2-4.6,0.4-6.9,0.4l-6.5,0.2l-13,0.4L379.5,25l-52.1,0.8
				c-34.8,0.4-69.7,0.6-104.5,0.6s-69.7-0.2-104.5-0.8l-52.1-0.8c-17.4-0.4-34.8-0.8-52.1-1.5v-2.1c17.4-0.6,34.8-0.8,52.1-1.3
				l52.1-0.6c34.8-0.4,69.7-0.4,104.5-0.4c34.8,0.2,69.5,0.2,104.5,0.6l52.1,0.6l51.9,1L432,23.3z"/>
		</g>
		<g id="Group_8" transform="translate(88.145 292.639)">
			<path id="Path_8" class="st2" d="M470.3,25.2c-38.1,1.7-76,2.5-114.1,2.9c-38.1,0.6-76,0.8-114.1,0.8l-56.9-0.2
				c-19.1-0.2-38.1-0.2-56.9-0.6c-38.1-0.6-76-1.5-114.1-3.1v-2.1c38.1-1.7,76-2.5,114.1-3.1c19.1-0.4,38.1-0.4,56.9-0.6l56.9-0.2
				c38.1,0,76,0.2,114.1,0.8s76,1.5,114.1,2.9V25.2z"/>
		</g>
		<g id="Group_9" transform="translate(64.696 264.793)">
			<path id="Path_9" class="st2" d="M511.6,24.8c-41.5,1.5-82.9,2.3-124.4,2.9c-20.7,0.4-41.5,0.4-62.2,0.6l-62.2,0.2
				c-41.5,0-82.9-0.2-124.4-0.8C97,27.3,55.6,26.3,14.1,24.8v-2.1c41.5-1.5,82.9-2.3,124.4-2.9s82.9-0.8,124.4-0.8l62.2,0.2
				c20.7,0.2,41.5,0.2,62.2,0.6c41.5,0.6,82.9,1.3,124.4,2.9L511.6,24.8z"/>
		</g>
		<g id="Group_10" transform="translate(41.665 241.971)">
			<path id="Path_10" class="st2" d="M549.3,24.6c-44.6,1.5-89.2,2.4-133.8,2.9c-44.6,0.4-89.2,0.6-133.8,0.6s-89.2-0.3-133.8-0.8
				c-44.6-0.4-89.2-1.5-133.8-2.7v-2.1c44.6-1.3,89.2-2.3,133.8-2.7c44.6-0.6,89.2-0.9,133.8-0.8c44.6,0,89.2,0.2,133.8,0.6
				s89.2,1.4,133.8,2.9V24.6z"/>
		</g>
		<g id="Group_11" transform="translate(20.728 213.915)">
			<path id="Path_11" class="st2" d="M587,24c-11.9,0.4-23.9,0.6-35.8,0.8l-35.8,0.8l-71.6,1c-47.7,0.4-95.5,0.6-143.2,0.6
				l-71.6-0.2l-35.8-0.2l-35.8-0.4l-71.6-0.8c-23.9-0.4-47.7-0.8-71.6-1.5v-2.1c23.9-0.6,47.7-1,71.6-1.5l71.6-0.8l35.8-0.4
				l35.8-0.2l71.6-0.2c47.7,0,95.5,0,143.2,0.6l71.6,1l35.8,0.8c11.9,0.2,23.9,0.6,35.8,0.8L587,24z"/>
		</g>
		<path id="Path_12" class="st0" d="M160,76c0,0,2.3,22.8,14.9,24.3c12.4,1.5,11.7,10.7,11.7,10.7l2.3,26.6l-2.5,3.6l-0.6,20.9
			L213,349.9h9.4l6.1,34.8l15.7,15.3l147.2-2.3l7.7-4.4l7.7-17.8l1.9-22.2l3.8-3.8c0,0,5.2,0.8,9.6-30.6s24.5-164.6,24.5-164.6
			s1-6.5-4.8-15.9s5.7-19.1,1.7-24.9s-28.1-2.5-28.1-2.5s-13.2-7.7-5-10.5c8-2.5,40-0.6,42.3-0.8c2.1-0.2,17.6-1.7,17.2-15.5
			s-2.5-27.6-7.7-29.1c-1-0.2-5.9-0.4-23.5-0.6c-8.4-0.2-4.2-35.2-14.9-35.4c-48.6-0.4-166.2,0.2-215.9,0c-12.8,0-4.6,33.5-14,33.5
			h-20.7C173.2,52.6,160.5,48.8,160,76z"/>
	</g>
	<g id="Layer_1_1_" transform="translate(19.4 6.434)">
		<g id="Group_13">
			<g id="Group_12">
				<path id="Path_13" class="st1" d="M93.9,103.7c4.6,13,3.3,20.5-2.3,26c-5.7,5.2-15.1,8-27.8,8h-23c0-2.5-0.2-5.1-0.8-7.5h8.4
					c-3.8-17.8-11.9-25.3-21.6-44.2c-3.6,1-5.2,1.7-8.8,2.7c-1.7-2.7-2.3-4.2-3.8-6.9C23.9,77.3,29,75.2,39,71
					c13.4-5.4,24.7-5.2,33.9,1C81.9,78.3,89.5,90.9,93.9,103.7z M83.6,104.7c-2.1-5.8-5.3-11.2-9.2-15.9c-3.5-4.3-8.1-7.4-13.4-9
					c-5.2-1.3-11.3-0.8-18.2,1c-2.5,0.6-3.8,1-6.3,1.9c9.8,21.6,17.6,29.1,21.1,47.1h5.9c9.6,0,16.3-1.9,19.7-5.7
					C86.8,120.4,87.2,114.3,83.6,104.7z"/>
				<path id="Path_14" class="st1" d="M141,81.7c-1.9-8-2.7-12.4-4.6-22c-11.5,1.9-17.4,3.1-28.7,5.4c3.6,15.1,5.7,21.6,8.6,32
					c9.6-0.6,14.4-1,24.1-1.5c1,4.6,1.7,6.9,2.5,11.1c-9.4,0.2-14.2,0.4-23.9,0.8c2.9,10.3,4.2,14.2,5.2,22.4h26.6
					c-0.4-4-1-8-1.9-11.9h7.7c1.4,6.5,2.2,13.2,2.3,19.9h-51.5c0-2.6-0.2-5.2-0.6-7.7h8c-3.8-20.9-11.5-42.1-17.4-62.4
					c-3.3,0.8-5.2,1-8.6,1.9c-1.5-5.7-2.3-8.8-3.8-15.1c18.5-6.3,37.3-11.5,56.3-15.7c2.9,20.1,4.6,28.3,7.5,42.5
					C146.3,81.3,143.6,81.4,141,81.7z"/>
				<path id="Path_15" class="st1" d="M169,54.9c8,24.1,16.5,47.3,27.2,70.3c5.4-24.3,5.7-49.4,6.9-74.1c-3.1,0.2-4.6,0.4-7.7,0.8
					c-1-8.6-1.5-13.2-2.5-23.4c10.5-1.7,15.9-2.5,26.4-3.8c0.8,10.7,1.3,15.7,2.1,24.5c-3.1,0.2-4.8,0.4-8.2,0.8
					c-1.9,29.3-1.9,60.3-12.1,88.1h-8.6c-11.7-27.4-23.9-54-33.9-81.9c-3.3,0.4-5,0.8-8.4,1.3c-1.3-7.5-1.9-11.7-3.1-20.5
					c10.7-2.5,16.1-3.6,27-5.7c1,9.6,1.7,14,2.7,22.2C173.7,54.3,172.2,54.5,169,54.9z"/>
				<path id="Path_16" class="st1" d="M273.7,73.9c-0.4-10.1-0.6-15.5-1-28.1c-11.7,0.4-17.4,0.8-29.1,1.5c1.3,22,1.9,30.6,2.9,44.2
					c9.6-0.2,14.4-0.4,24.1-0.4c0.2,5.9,0.4,8.4,0.6,13.2c-9.4,0-14.2,0.2-23.7,0.2c0.8,12.6,1.3,16.8,1.5,25.1h26.6
					c0-4.8-0.2-7.1-0.4-12.8h7.7c0.2,9.4,0.2,13,0.4,20.5h-51.5c0-3.1,0-4.6-0.2-7.7h8c-1.5-27.2-4.2-54.4-6.3-81.7
					c-3.6,0.2-5.2,0.4-8.8,0.8c-0.8-9-1-13.8-1.9-24.7c23-2.7,34.5-3.6,57.8-4.4c0.6,26.4,0.8,36.6,1.3,54
					C278.5,73.7,276.9,73.9,273.7,73.9z"/>
				<path id="Path_17" class="st1" d="M304.9,45.3v84.4h20.3c0-8,0.2-11.9,0.4-23.9h8c-0.6,16.5-0.6,20.7-0.8,31.6h-45.2v-8h8
					c-0.2-28.1-0.6-56.3-1-84.4c-3.6,0-5.2,0-8.8,0.2c-0.2-9.4-0.2-14.7-0.4-26c11.3-0.4,17.2-0.4,28.5-0.2c0,11.3-0.2,16.3-0.2,26
					C310.2,45.3,308.5,45.3,304.9,45.3z"/>
				<path id="Path_18" class="st1" d="M407.5,100.5c-1.3,10.1-3.6,16.8-6.9,22.2c-3,5-7.2,9.2-12.4,11.9c-5.2,2.7-10.9,4.1-16.8,4
					c-5.7,0.1-11.4-1.4-16.3-4.2c-4.9-2.8-8.7-7.1-10.9-12.4c-2.5-5.7-3.6-12.8-3.1-23.2c0.6-11.6,2.6-23.2,5.9-34.3
					c3.6-12.4,8.2-24.1,14-32.7s12.1-13.2,19.1-12.4c7.1,0.8,13.2,6.7,17.8,16.3c4.8,10.4,7.9,21.5,9.2,32.9
					C408.7,79.2,408.8,89.9,407.5,100.5z M372.1,130.3c4.1,0.1,8.2-1.1,11.5-3.6c3.7-2.5,6.7-6,8.6-10.1c2.3-4.4,3.8-9.8,4.6-16.3
					c0.8-7.4,0.6-14.9-0.6-22.2c-1.3-8-3.4-15.5-6.5-21.6s-7.1-9.6-11.9-10c-4.6-0.4-8.8,2.5-12.8,8c-3.8,5.4-6.9,13-9.4,21.4
					c-2.2,7.6-3.6,15.4-4.2,23.2c-0.4,7.7,0.2,13.6,1.7,18c1.2,3.9,3.7,7.3,7.1,9.6C363.7,129.1,367.9,130.3,372.1,130.3
					L372.1,130.3z"/>
				<path id="Path_19" class="st1" d="M467.6,83.4c-2.3,10.7-5.4,16.5-10.1,21.4c-4.6,4.8-11.1,6.9-19.7,6.9c-3.4,0-5,0-8.4-0.2
					c-1.2,6-1.9,12.1-2.3,18.2h8.2c-0.2,3.1-0.4,4.6-0.4,7.7h-25.1c0-3.1,0-4.6,0.2-7.7h7.7c2.3-25.5,7.1-51.3,10.7-76.6l-8.4-1
					c1-8.6,1.5-13.2,2.5-23.2c10.3,1.7,15.5,2.7,25.5,4.6c6.9,1.5,12.1,4.6,15.5,9.2c3.6,4.6,5.4,10.5,6.1,17.2
					C470.3,66.6,469.5,74.8,467.6,83.4z M457.6,82.1c1.5-7.5,1.5-14-0.2-18.6c-1.7-4.6-5.7-7.5-11.7-8.4c-2.7-0.4-4.2-0.6-7.1-0.8
					c-3.4,24.1-5,32.7-7.3,46.7c2.3,0,3.6,0,6.1,0.2c3.3,0.3,6.7-0.1,9.8-1.3c2.6-1.1,4.8-3,6.3-5.4C455,91.7,456.5,88.2,457.6,82.1
					L457.6,82.1z"/>
				<path id="Path_20" class="st1" d="M518.7,87.1c2.1-6.5,3.1-10.1,5.2-17.6c-11.3-2.5-17.2-3.8-28.7-6.1
					c-3.4,15.7-5.4,22.4-8.2,33.1c9.6,0.6,14.4,1,24.1,1.7c-1.3,4-1.9,6.1-3.1,9.8c-9.6-0.4-14.2-0.6-23.9-0.8
					c-2.7,10.5-4,14.4-4.8,22.6h26.6c0.6-3.9,1.4-7.7,2.5-11.5c3.1,0,4.6,0,7.7,0.2c-2.3,7.7-3.1,11.3-3.4,19.1h-51.5
					c0-3.1,0.2-4.6,0.4-7.7h8c3.6-22.8,10-45.9,15.3-68.3c-3.6-0.6-5.2-0.8-8.6-1.5c1.3-7.1,2.1-10.9,3.4-19.3
					c22.6,5.7,33.9,9,56.1,16.5c-2.4,10.4-5.5,20.7-9.2,30.8C523.5,87.8,521.8,87.5,518.7,87.1z"/>
				<path id="Path_21" class="st1" d="M583.2,94.9c-2.2,3.7-5.4,6.8-9.2,9c-3.9,2.3-8.3,3.9-12.8,4.6c0.2,9.2,0.2,13,2.7,21.6h7.5
					c-0.6,2.5-0.9,5-0.8,7.5h-13.8c-5.2-11.5-5.4-16.3-5.7-28.5c-3.6-0.2-5.4-0.2-9-0.4c-3.8,9-5.4,13-6.9,21.4h8
					c-0.5,2.5-0.8,5-0.8,7.5h-25.5c0-2.6,0.2-5.2,0.6-7.7h8.4c3.1-18.2,9.8-26,19.5-55.1c-3.6-0.8-5.4-1.5-9-2.3
					c1.7-5.2,2.3-8,3.8-13.6c11.1,3.8,16.5,5.9,27.4,10.3c8.6,3.3,14,7.7,16.3,11.7C586.7,85,586.3,89.4,583.2,94.9z M573.1,92.8
					c1.7-3.1,1.9-5.7,0.6-7.7c-1.3-2.1-4-3.8-8-5c-4-1-6.1-1.7-10.3-2.7c-3.8,10.1-5.9,14.9-9.4,22.8c3.8,0.4,5.7,0.6,9.4,0.8
					c4.2,0.4,7.7,0,10.5-1.3C568.9,98.6,571.2,96.3,573.1,92.8z"/>
			</g>
		</g>
		<g id="Group_15" transform="translate(29.94 525.869)">
			<g id="Group_14">
				<path id="Path_22" class="st1" d="M76.9,34.6c-0.9,2.7-2.3,5.2-4.2,7.3c-2.1,2.1-4.6,3.7-7.3,4.8c2.6,1.2,4.6,3.6,5.2,6.5
					c0.6,2.9,0.2,6.5-1.5,11.1c-2.9,7.7-7.3,13.8-13,17s-12.8,2.9-21.1-0.6c-8.4-3.4-12.6-5.2-20.9-9c1.3-2.5,1.9-3.8,3.4-6.3
					c2.9,1,4.4,1.5,7.5,2.3c9-17.4,16.5-24.1,20.1-40.6H38c0.6-2.3,0.9-4.6,0.8-6.9h20.1c6.9,0,12.1,1.3,15.3,3.6
					C77.1,26.1,78.2,29.6,76.9,34.6z M68.1,34.9c0.8-2.5,0.4-4.6-1.3-5.9s-4.2-2.1-7.7-2.1h-5.7c-1.3,6.5-2.5,9.4-5.7,15.9
					c2.3,0,3.6,0.2,5.9,0.2C61,43.4,66.2,40.5,68.1,34.9L68.1,34.9z M59.8,62.5c1.7-4.2,1.7-6.9,0-8.8s-4.8-2.9-9.8-3.4
					c-2.3-0.2-3.3-0.2-5.7-0.4c-4,7.5-6.3,11.5-10.5,20.3c1.5,0.4,2.1,0.6,3.6,1c3,1,6.1,1.5,9.2,1.7c2.6,0.1,5.1-0.7,7.1-2.3
					C56.2,69.2,58.1,66.3,59.8,62.5L59.8,62.5z"/>
				<path id="Path_23" class="st1" d="M143.1,52.4c-2,9.2-5.2,18.1-9.6,26.4c-4.6,9-10.1,17-16.1,21.8c-6.1,5-12.1,6.5-18.6,4.6
					c-6.3-1.9-11.3-6.7-14.9-13.2c-3.5-6.6-5.5-13.9-5.9-21.4c-0.4-7.5,1-14.2,3.3-20.9c2.1-6,5.2-11.5,9.2-16.3
					c3.3-4.2,7.5-7.7,12.1-10.3c4.7-2.5,10-3.8,15.3-3.8c5.4-0.2,10.8,1.2,15.5,4c4.3,2.4,7.7,6.3,9.4,10.9
					C144.5,38.4,144.8,44.5,143.1,52.4z M102.7,88.2c4.2,0.8,8.6-0.6,12.8-4.4c4.6-4.3,8.5-9.4,11.3-15.1c3-5.2,5.1-10.9,6.5-16.8
					c1.3-5.4,1.5-10.3,0.4-13.8c-0.9-3.4-3-6.4-5.9-8.4c-3.1-2-6.6-3-10.3-2.9c-3.7-0.1-7.4,0.9-10.7,2.7c-3.5,1.9-6.5,4.7-8.8,8
					c-2.8,3.8-5,8.1-6.5,12.6c-1.7,5.1-2.5,10.4-2.5,15.7C89,70.9,90.2,76,92.6,80.5C94.7,84.4,98.3,87.3,102.7,88.2L102.7,88.2z"/>
				<path id="Path_24" class="st1" d="M212.4,54.1c-1.1,10.5-3.4,20.8-6.9,30.8c-3.8,10.9-8.6,20.9-14.2,28.1s-11.9,10.7-18.4,9.4
					c-6.3-1-11.5-6.5-15.5-14.7c-4.1-8.8-6.6-18.3-7.3-28.1c-0.9-9.1-0.6-18.4,1-27.4c1.7-8.2,4-14,7.1-18.8
					c2.9-4.5,6.8-8.2,11.5-10.7c4.6-2.5,9.8-3.8,15.1-3.8c5.4-0.1,10.7,1.2,15.5,3.8c4.5,2.5,8,6.4,10.1,11.1
					C212.6,39,213.2,45.1,212.4,54.1z M175.7,99.6c4.4,0.4,8.6-2.1,12.4-7.1c4-5,7.1-11.5,9.6-18.6c2.4-6.4,4-13.1,4.8-19.9
					c0.6-6.3,0.2-11.1-1.3-15.3c-1.3-3.6-3.6-6.8-6.7-9c-3.1-2.1-6.8-3.1-10.5-2.9c-3.7,0-7.3,1-10.5,2.9c-3.4,2.1-6.1,5.1-8,8.6
					c-2.6,4.5-4.3,9.5-5,14.7c-1,6.6-1.3,13.2-0.8,19.9c0.5,6.4,2.1,12.6,4.8,18.4C167.8,96,171.3,99.1,175.7,99.6L175.7,99.6z"/>
				<path id="Path_25" class="st1" d="M259.9,43.4c0.2-7.7,0.2-10.3,0.2-16.1h-11.7c-0.6,25.5-1.9,50.9-2.7,76.4
					c3.4,0.2,4.8,0.2,8.2,0.2c-0.2,8.6-0.4,13.2-0.6,23.5c-10.5-0.4-15.9-0.6-26.4-1.5c0.4-10,0.6-14.7,1.3-23
					c3.1,0.2,4.8,0.2,8,0.4c1.3-25.3,2.7-50.7,3.6-76h-11.7c-0.2,5.7-0.4,8.6-0.8,15.9h-7.1c0.8-11.3,1-14.9,1-23.2h46.3
					c0,8.4,0,11.7-0.2,23.5L259.9,43.4z"/>
				<path id="Path_26" class="st1" d="M321.3,26.5V20h7.3c0,7.3,0.2,10.7,0.8,19.9h-7.5c-1.7-4-4.6-7.4-8.2-9.8
					c-3.3-2.1-7-3.2-10.9-3.1c-3.6-0.1-7.1,1-10,3.1c-3.2,2.3-5.6,5.5-6.9,9.2c-1.7,4.2-2.5,9.2-2.3,15.7c0.1,7.1,1.1,14.1,2.9,20.9
					c1.6,7.2,4.3,14.1,8,20.5c3.4,5.7,7.3,8.6,11.3,8.4c5-0.2,9.4-4.8,12.8-12.6s5.7-17.8,6.7-27.4c3.4,2.9,4.8,4.4,8.2,7.5
					c-1,13.4-4,28.1-9,39.6s-11.3,18.6-19.1,19.1c-6.3,0.2-11.9-4.6-17-13.2c-4.8-8.8-8.6-19.7-11.3-31.2c-2.3-10-3.6-20.3-3.8-30.6
					c0-9.6,1.3-16.3,3.8-21.4c2.1-4.6,5.6-8.5,10.1-11.1c4.5-2.6,9.5-3.9,14.6-3.8c3.5,0,7,0.6,10.3,1.9
					C315.6,22.1,318.5,24,321.3,26.5z"/>
				<path id="Path_27" class="st1" d="M371.3,26.9c10,22.6,18.4,45.4,26.2,68.9c2.7-0.4,4.2-0.6,6.9-1c1,7.1,1.7,11.1,2.7,19.5
					c-10.1,2.1-15.1,2.9-25.1,4.6c-1-9.2-1.5-13.4-2.3-20.9c3.4-0.4,5-0.6,8.2-0.8c-3.8-13.4-5.7-19.5-8.8-29.1l-22,1
					c-0.8,10.5-1,16.5-1.7,31.4c3.1-0.2,4.8-0.4,8-0.8c0.8,8,1.3,12.4,2.1,22c-10.3,1.5-15.3,2.1-25.5,3.1
					c-0.6-9.8-0.8-14.4-1.5-22.6c2.9-0.2,4.6-0.4,7.5-0.6c1.7-24.9,2.3-50.2,9.2-74.3h-6.9c-0.2-2.9-0.2-4.2-0.2-6.9h29.7
					c0,2.7,0,4.2,0.2,6.9C375.5,26.9,374,26.9,371.3,26.9z M363.6,26.9h-0.2c-2.7,9.6-3.6,14.2-5,29.9c6.7-0.2,10.3-0.2,17-0.4
					C369.6,41.3,367.3,36.5,363.6,26.9L363.6,26.9z"/>
				<path id="Path_28" class="st1" d="M446.3,20h19.9c0,2.4,0.2,4.8,0.6,7.1h-6.9c2.5,17,8.2,24.3,17,54.4c2.9-0.6,4.4-1,7.5-1.9
					c1.5,4.8,2.1,7.1,3.6,12.4c-9.2,3.1-14,4.8-23.2,7.5c-1.3-6.3-1.9-9.2-3.4-14.9c2.9-0.6,4.4-1,7.3-1.7
					c-5.4-18.2-12.8-37.3-16.3-56.3c-5.2,25.1-1.9,52.8-1.5,78.3c-0.8,0.2-1,0.4-1.9,0.6c-11.3-27.2-23.9-52.8-37.7-78.7
					c2.9,21.6,8.6,43.3,13,64.9c2.7-0.4,4.2-0.6,6.9-1.3c1.3,6.5,1.9,10,3.1,17.4c-9,2.3-13.4,3.4-22.4,5.2
					c-1-8.2-1.7-12.1-2.7-19.1c3.1-0.4,4.6-0.6,7.5-1c-4.2-21.8-9.4-44-12.4-66h-6.9c-0.2-2.9-0.4-4.4-0.4-7.1h19.7
					c6.1,15.9,11.3,20.5,25.1,47.1C440.4,39.3,440.4,35.9,446.3,20z"/>
				<path id="Path_29" class="st1" d="M518.7,36.7c2.1,4.8,2.7,8.6,1,11.7s-6.5,5.4-14.4,6.5c-3.1,0.4-4.8,0.4-8,0.8
					c2.9,6.5,4.8,10.5,8,18.4c3.1-0.8,4.8-1.3,8-2.3c1.5,3.6,2.3,5.4,3.6,9.2c-9.8,4-14.9,5.9-24.9,9.4c-1.3-5-2.1-7.5-3.6-11.9
					c3.1-0.8,4.6-1.3,7.7-1.9c-9-25.8-15.3-32.9-18.2-49.6h-7.1c-0.4-2.3-0.6-4.7-0.6-7.1h21.4c4.7-0.1,9.3,0.5,13.8,1.9
					c3.1,1.1,6,3,8.2,5.4C515.5,30.3,517.2,33.5,518.7,36.7z M509.7,36.7c-1.5-3.4-3.1-5.9-5.7-7.3s-6.3-2.3-11.3-2.3h-6.1
					c1.5,8.4,3.4,12.1,7.3,21.1c2.3-0.2,3.4-0.2,5.7-0.4c2.8-0.1,5.7-0.6,8.4-1.5c1.9-0.8,2.9-1.9,3.1-3.6
					C511.1,40.7,510.6,38.7,509.7,36.7L509.7,36.7z"/>
			</g>
		</g>
		<g id="Group_16" transform="translate(128.135 129.462)">
			<path id="Path_30" class="st2" d="M66.2,19.6l104.7-0.4l52.3-0.2h45.6c2.1,0,4.4-0.4,6.5,0.8l-1.7,0.2l0,0
				c0.7-0.2,1.4-0.3,2.1-0.4c0.6,0,1.3-0.2,1.9-0.2c1.3,0,2.7,0.2,4,0.4c2.5,0.7,4.8,2,6.5,4c3.1,3.8,4.2,8.2,4.8,11.9
				c0.6,3.7,1,7.5,1.3,11.3c0.2,3.8,0.4,7.5,0.4,11.3l-1-1l0,0c4-0.6,7.7-1,11.7-1.5s7.7-0.8,11.7-1h0.6c1.2,0.2,2.3,0.5,3.4,1
				c1,0.4,2,1,2.9,1.7c1.9,1.5,3.4,3.3,4.4,5.4c0.9,2.1,1.6,4.4,1.9,6.7c0.2,2.3,0.2,4,0.2,5.7c0,3.3,0.2,6.9,0.4,10.5l0.6,10.5
				l-0.2-1c0.2,0.8,0.2,1.7,0.2,2.5c0,0.6-0.2,1.3-0.2,1.7c-0.2,0.9-0.6,1.8-1.3,2.5c-0.8,1.2-1.8,2.3-2.9,3.1
				c-1.7,1.2-3.6,2.2-5.7,2.9c-3.3,1.1-6.8,1.8-10.3,2.1c-1.7,0.2-3.4,0.2-5,0.4c-1.7,0-3.4,0.2-4.8,0.2l-9.4,0.2l-37.3,0.6
				c-24.7,0.4-49.6,0.2-74.3,0.2l-148.7-1.3h-1.9c-0.6,0-1.5-0.2-2.1-0.2c-1.4-0.3-2.7-0.8-4-1.5c-2.7-1.3-5-3.3-6.5-5.9
				c-1.4-2.2-2.3-4.7-2.7-7.3c-0.2-1-0.2-2.3-0.4-3.4v-2.7c0-3.8,0-7.5,0.2-11.3c0.2-3.7,0.6-7.4,1.3-11.1l0,0l0.4,2.5L15.6,69
				c0-0.2-0.2-0.4-0.2-0.6c-0.2-0.4-0.2-0.8-0.4-1c-0.3-0.8-0.4-1.7-0.2-2.5c0-1.8,0.4-3.5,1.3-5c1.6-2.3,3.9-4.2,6.5-5.2
				c3.8-1.4,7.9-2.2,11.9-2.3c3.3-0.2,6.9,0.2,10.3,0.2c1.7,0,3.4-0.2,5-0.4c0.4,0,0.8-1.3,1-2.1c0.2-0.4,0.4-0.6,0.6-0.4
				s0.4,0.2,0.6,0.6c1.3,1.7,2.3,3.6,2.9,5.7l0,0l-0.2,1.7c-0.8-2.1-1.4-4.3-1.7-6.5c-0.3-2.1-0.3-4.2-0.2-6.3
				c0-2.1,0.2-4.2,0.4-6.3c0.2-2,0.4-4.1,0.8-6.1v-1.3c0-0.8,0.2-1.6,0.4-2.3c0.5-1.7,1.2-3.4,2.3-4.8
				C59.2,21.3,62.6,19.7,66.2,19.6L66.2,19.6z M66.2,28.6c-0.5,0-1,0.1-1.5,0.2c-0.4,0.2-0.4,0.2-0.6,0.6c-0.2,0.2-0.2,0.6-0.4,1.3
				v1.9h0.2l-0.2,1.3c-0.2,2.1-0.4,4.2-0.6,6.1c-0.2,2-0.6,4.1-1,6.1c-0.4,2.1-1.1,4.1-1.9,6.1c-0.9,2-1.9,4-3.1,5.9l-0.8,0.8l0,0
				c-1.3,6.5-3.1,8.6-5,4.6h-5.2c-3.5,0.5-7,0.9-10.5,1c-2.8-0.1-5.6,0.2-8.4,0.8c-0.6,0.1-1.2,0.3-1.7,0.6c0-0.1-0.1-0.2-0.2-0.2
				c0,0,0,0,0,0v0.4l0,0L25,65.9l0.4,2.5l0,0c0,3.3,0,6.9,0.2,10.5s0.4,6.9,0.6,10.5l0.2,2.5c0.2,0.8,0.2,1.3,0.4,1.9
				c0.1,1,0.6,2,1.3,2.7c0.4,0.6,1,1,1.7,1.3c0.4,0.2,0.6,0.2,1,0.4h149.9l74.3,0.4l37.1,0.2h13.6c1.5,0,2.9,0,4.4-0.2
				c2.7-0.1,5.4-0.6,8-1.5c1-0.4,2.1-0.8,2.5-1c0.2-0.2,0.4-0.2,0.2-0.2c-0.1,0.1-0.2,0.3-0.2,0.4v1.7l-0.2-1V86.2
				c0.2-3.6,0.2-7.1,0.6-10.7c0-1.7,0.4-3.8,0.4-4.8c0.1-1.2-0.1-2.4-0.4-3.6c-0.4-1-1-2-1.7-2.9c-0.4-0.5-0.9-0.9-1.5-1.3
				c-0.4-0.4-1.3-0.6-1.5-0.8h0.8c-4-0.2-7.7-0.6-11.7-1s-7.7-0.8-11.7-1.5H293l-0.2-1c-0.5-3.7-1.2-7.3-2.1-10.9
				c-0.8-3.6-1.8-7.2-2.9-10.7c-0.7-3.1-2.2-5.9-4.4-8.2c-0.9-0.8-2-1.2-3.1-1.3h-1.7c-0.2,0-0.6,0.2-0.8,0.2
				c-0.2,0-0.4,0.1-0.6,0.2l0,0l-1.7,0.2c-2.1,1-4.4,0.6-6.5,0.8h-45.6l-52.3-0.2L66.2,28.6z"/>
		</g>
		<g id="Group_17" transform="translate(155.647 219.349)">
			<path id="Path_31" class="st2" d="M16.7,19.4c1.9,5.7,3.3,11.3,4.8,16.7c0.8,2.7,1.5,5.7,2.1,8.2c0.4,1.3,0.8,2.7,1.3,3.8
				c0.2,0.5,0.4,1,0.6,1.5v0.2l0,0v-0.2l-0.2-0.2c-0.2-0.2-0.2-0.4-0.4-0.4l-0.2-0.2l-0.2-0.2l-0.2-0.2L57.4,48
				c23.2-0.2,46.5,0,69.7-0.2l69.7-0.4l69.7-0.2l-4.8,3.4l0,0c0-2.7,0.4-5.4,1.3-8c0.8-2.5,1.9-5,3.1-7.3c1.3-2.3,2.7-4.6,4.2-6.9
				c1.6-2.3,3.4-4.4,5.2-6.5h2.1c1.7,3.1,1.9,6.3,2.1,9.4c0,2.9-0.2,5.8-0.8,8.6c-0.6,2.7-1.5,5.4-2.5,8c-1.2,2.6-2.8,5-4.8,7.1l0,0
				l-1.3,3.1h-3.6c-23.2,0.4-46.5,0.6-69.7,0.8l-69.7,0.4c-23.2,0-46.5,0.2-69.9-0.2l-17.6-0.4L31,58.3l-4.4-0.2
				c-0.8,0-1.5,0-2.3-0.2L23,57.7h-0.6c-0.6,0-1.1-0.2-1.7-0.4c-0.2,0-0.6-0.2-0.8-0.2l-0.4-0.2c-0.2-0.2-0.4-0.2-0.4-0.4l-0.8-0.8
				C18,55.4,18,55.2,17.8,55l-0.4-0.6l-0.2-0.4c-0.2-0.2-0.2-0.6-0.4-0.8c-0.3-0.9-0.6-1.8-0.8-2.7c-0.4-1.5-0.6-3.1-0.8-4.6
				c-0.5-3-0.8-6-0.8-9c-0.3-5.9-0.1-11.9,0.4-17.8L16.7,19.4z"/>
		</g>
		<g id="Group_18" transform="translate(333.11 253.477)">
			<path id="Path_32" class="st2" d="M92.6,18.9c4.3,2.1,7.4,6,8.6,10.7c0.2,1.2,0.4,2.4,0.4,3.6c0,1.1,0,2.2-0.2,3.4l-0.6,6.5
				c-0.8,8.6-1.7,17.2-2.5,25.5c-1.9,17-3.8,34.1-5.9,51.1s-4.2,34.1-6.5,51.1c-2.1,17-4.6,33.9-6.9,50.9v0.2c0,0.4,0,0.7-0.2,1
				c0,0.6-0.2,1.2-0.4,1.7c-0.4,1-0.8,2.3-1.3,3.1c-1.1,1.8-2.5,3.5-4.2,4.8c-2.9,2.1-6.3,3.4-9.8,4c-2.9,0.5-5.8,0.7-8.8,0.8
				c-2.7,0-5.4,0-8.2-0.2c-5.4-0.4-10.7-0.8-16.1-1.7c-5.4-0.8-10.7-2-15.9-3.6l0.2-2.1c10.7-1.9,21.4-2.5,31.6-3.4
				c2.5-0.2,5.2-0.4,7.7-0.6c2.3-0.2,4.6-0.5,6.9-1c1.7-0.4,3.3-1,4.8-1.9l1-1c0.1-0.1,0.2-0.3,0.2-0.4v-0.2l0,0v-1l7.5-50.9
				c2.7-17,5.2-33.9,8.2-50.9c2.7-17,5.9-33.9,8.8-50.7c1.7-8.4,3.1-17,4.6-25.3l1.3-6.3c0.2-1,0.4-1.9,0.4-2.9v-2.9
				c-0.2-3.8-2.7-7.3-5.9-9.4L92.6,18.9z"/>
		</g>
		<g id="Group_19" transform="translate(191.537 468.292)">
			<path id="Path_33" class="st2" d="M18.5,19.2c2.1,5,3.8,10.1,5.4,14.9c1.4,4.5,3.1,9,5,13.4c1.9,4.2,4.2,7.5,6.9,9
				c1.4,0.8,3,1.1,4.6,1h3.8c1.3,0,2.7-0.2,4-0.2c21.1-0.6,42.3,0,63.2,0.4c20.9,0.6,42.1,1.3,63,2.1l8,0.4l4,0.2
				c0.3,0,0.6-0.1,0.8-0.2c0.4,0,0.9-0.2,1.3-0.4c1.9-1,3.5-2.5,4.8-4.2c0.4-0.5,0.7-0.9,1-1.5l0.8-1.5c0.6-1,1-2.1,1.7-3.4
				c1.9-4.7,3.3-9.6,4.2-14.7c0.4-2.5,0.8-5,1-7.7l0.6-7.7h2.1c0.6,10.5,0.4,21.4-2.9,32c-0.4,1.4-0.9,2.7-1.5,4l-0.8,1.9
				c-0.4,0.6-0.8,1.2-1,1.9c-1.6,2.7-3.8,4.9-6.5,6.5c-0.7,0.5-1.5,0.8-2.3,1c-0.9,0.4-1.9,0.6-2.9,0.6l-4,0.2l-8,0.2
				c-20.9,0.4-42.1,0.8-63,1s-42.1,0.4-62.8,1c-1.3,0-2.5,0-3.8,0.2h-4.2c-3.7,0.2-7.4-0.7-10.7-2.5c-3.1-1.7-5.9-4-8-6.9
				c-2-2.5-3.6-5.2-4.8-8.2c-2.2-5.3-3.4-11-3.6-16.8c-0.3-5.6,0.5-11.3,2.5-16.5h1.9L18.5,19.2z"/>
		</g>
		<g id="Group_20" transform="translate(154.57 254.314)">
			<path id="Path_34" class="st2" d="M18.9,18.9c0.6,1.6,1.1,3.2,1.5,4.8c0.4,1.6,0.8,3.2,1,4.8v-0.4c2.4,8.2,4.1,16.6,5,25.1
				l3.1,25.3c2.1,16.8,4,33.7,6.1,50.5l5.9,50.5c1,8.4,1.9,16.8,3.1,25.1c0.6,4.2,1,8.4,1.7,12.4c0.4,2.1,0.6,4.2,1,6.1
				c0.2,1,0.4,1.9,0.6,2.9c0.2,0.4,0.2,0.8,0.4,1.3c0,0.4,0.4,0.6-0.2,0l0,0l-2.9-1.3c9.4-0.4,18.8-0.4,28.5-0.4h28.5l28.5,0.4
				l14.2,0.2c4.8,0.2,9.4-0.6,14.2,2.7v2.1c-4.8,3.4-9.4,2.5-14.2,2.7l-14.2,0.2l-28.5,0.4H73.7c-9.4-0.2-18.8-0.2-28.5-0.4h-1.9
				l-1-1l0,0c-0.8-0.7-1.4-1.7-1.7-2.7l-0.6-1.9c-0.4-1-0.6-2.3-1-3.4c-0.6-2.1-1.3-4.2-1.7-6.3c-1-4.2-1.9-8.4-2.7-12.6
				c-1.5-8.4-3.1-16.8-4.4-25.1c-2.7-16.8-4.8-33.7-7.1-50.5c-2.1-17-4-33.7-5.7-50.7l-2.5-25.3c-0.9-8.5-1-17-0.4-25.5v-0.4
				c0.2-1.6,0.6-3.2,1-4.8c0.4-1.6,0.9-3.2,1.5-4.8H18.9L18.9,18.9z"/>
		</g>
		<g id="Group_21" transform="translate(224.237 163.447)">
			<path id="Path_35" class="st2" d="M14.1,24.2c0.7-1.6,1.7-3,2.9-4.2c0.8-0.7,1.9-1.1,2.9-1h40.2c15.3,0.2,30.6,0.2,45.9,0.6
				l23,0.6l23,0.8c15.3,0.6,30.6,1.3,45.9,2.5v2.1c-15.3,1.3-30.6,1.9-45.9,2.7l-23,0.8l-23,0.6c-15.3,0.4-30.6,0.6-45.9,1l-23,0.2
				H20c-1.1-0.1-2.1-0.4-2.9-1c-1.3-1.1-2.3-2.6-2.9-4.2V24.2z"/>
		</g>
		<g id="Group_22" transform="translate(169.8 161.772)">
			<path id="Path_36" class="st2" d="M14.1,18.9c2.1-0.1,4.2,0.1,6.3,0.4c2.1,0.2,4.2,0.6,6.3,1s4.2,0.8,6.3,1.5
				c2.2,0.7,4.3,1.5,6.3,2.5v2.1c-2,1-4.1,1.9-6.3,2.5c-2.1,0.6-4.2,1-6.3,1.5s-4.2,0.8-6.3,1s-4.2,0.4-6.3,0.4V18.9z"/>
		</g>
		<g id="Group_23" transform="translate(235.923 298.557)">
			<path id="Path_37" class="st2" d="M106.1,49.4L106.1,49.4l-0.2-0.2l-0.4-0.4l-0.8-1c-0.6-0.6-1-1.5-1.7-2.1l-3.8-3.8
				c-2.6-2.2-5.5-4.1-8.6-5.4c-6-2.6-12.7-3-19.1-1.3c-3.3,1-6.5,2.2-9.6,3.8c-1.7,0.6-3.4,1.7-4.8,2.3c-1.7,1-3.1,1.9-4.8,2.9
				c-6.5,4.4-12.5,9.3-18,14.9l0.6-0.6C29.2,66,24.6,74.6,22.9,83.6c-0.7,4.5-0.5,9.2,0.6,13.6c1.2,4.6,3.4,8.8,6.5,12.4
				c6.1,7.3,15.3,12.4,24.9,14.2c4.9,1,9.9,1.1,14.9,0.4c1.2-0.1,2.4-0.5,3.6-1c0.6-0.2,1-0.6,1.7-0.8c0.4-0.4,1-0.8,1.5-1.3
				c1.9-1.7,3.4-3.6,5.2-4.8l-0.4,0.4c4.6-5.2,9-10.5,13-15.7c4-5.3,7.6-10.9,10.7-16.8c2.9-5.7,5-11.7,5.2-17.8v-2.3
				c0-0.8-0.2-1.5-0.2-2.3c-0.1-1.5-0.3-2.9-0.6-4.4c-0.1-0.7-0.3-1.4-0.6-2.1l-0.6-2.1C107.3,52.1,106.6,50.8,106.1,49.4z
				 M116.5,43.8c0.8,1.9,1.7,3.8,2.3,5.7l0.8,2.9c0.3,1,0.5,1.9,0.6,2.9c0.4,2,0.6,4,0.6,6.1v2.9l-0.2,2.9
				c-0.9,7.7-3.3,15.1-7.1,21.8c-3.6,6.3-7.8,12.3-12.6,17.8c-4.6,5.4-9.6,10.5-14.9,15.3l-0.4,0.4l0,0c-1.3,0.8-2.6,1.4-4,1.9
				c-1.4,0.4-2.8,0.6-4.2,0.6c-1.5,0.2-2.7,0.2-4.2,0.4c-1.3,0.2-2.5,0.5-3.8,0.8c-5.2,1.1-10.5,1.2-15.7,0.4
				c-10.7-1.3-20.6-6.1-28.3-13.6c-4-3.9-7-8.6-9-13.8c-2-5.3-2.8-10.9-2.5-16.5c0.6-11.3,5-21.8,10.5-31v-0.2l0.4-0.6
				c5.5-6.7,11.6-12.9,18.2-18.4c6.7-5.7,14.9-10.7,24.5-12.6c9.7-2.1,19.9-0.8,28.7,3.8c4.2,2.3,8,5.2,11.3,8.6
				c1.6,1.6,3.2,3.4,4.6,5.2c0.6,0.8,1.5,1.9,2.1,2.7c0.4,0.4,0.6,1,1,1.5l0.4,0.8L116.5,43.8z"/>
		</g>
		<g id="Group_24" transform="translate(251.455 317.126)">
			<path id="Path_38" class="st2" d="M85.9,21.2c-0.2,0.2-0.2,0.4-0.4,0.6l-0.4,0.6l-1,1.3c-0.6,1-1.3,1.9-2.1,2.7
				c-1.3,1.7-2.7,3.6-4,5.2c-2.7,3.4-5.4,6.7-8,9.8c-5.2,6.3-9.6,13.2-11.7,20.7l-1,3.4c-0.4,1.3-0.9,2.5-1.5,3.8L54.1,73
				c-0.6,1-1.5,2.1-2.1,3.1c-3,4-6.7,7.5-10.9,10.3c-4,2.7-8.3,4.8-12.8,6.5c-4.4,1.7-9,2.8-13.6,3.4l-0.6-2.1
				c7.8-3.8,15-8.6,21.4-14.4c2.9-2.8,5.3-6,7.3-9.4l1.3-2.5l1-2.5c0.3-0.9,0.5-1.8,0.6-2.7l0.8-3.1c2.1-10.1,7.3-18.8,13.6-26
				c3.2-3.6,7-6.7,11.1-9.2c2.1-1.3,4.2-2.3,6.5-3.1c1-0.4,2.3-0.8,3.6-1.3c0.6-0.2,1.2-0.4,1.9-0.4l1-0.2c0.2,0,0.8-0.2,1-0.2
				L85.9,21.2z"/>
		</g>
		<path id="Path_39" class="st3" d="M128.4,163.5"/>
	</g>
</g>
</svg>
